<svg width="1280" height="720" viewBox="0 0 1280 720" xmlns="http://www.w3.org/2000/svg" role="img" aria-label="Folium Map Active in Shipment Card">
  <rect width="1280" height="720" fill="#e2e8f0"/>
  <rect x="30" y="24" width="1220" height="64" rx="14" fill="#0f172a"/>
  <text x="58" y="64" fill="#a7f3d0" font-size="24" font-family="Segoe UI, Arial">SmartChainAI - Shipment Map Trace</text>

  <rect x="30" y="108" width="420" height="580" rx="14" fill="#ffffff"/>
  <text x="52" y="146" fill="#0f172a" font-size="20" font-family="Segoe UI, Arial">Shipment Inventory</text>

  <rect x="52" y="168" width="376" height="82" rx="10" fill="#f8fafc"/>
  <text x="68" y="198" fill="#0f172a" font-size="14" font-family="Segoe UI, Arial">SC-OPR-10002 | Pune, IN -> Bengaluru, IN</text>
  <rect x="68" y="210" width="144" height="28" rx="14" fill="#dbeafe" stroke="#0284c7"/>
  <text x="90" y="229" fill="#0c4a6e" font-size="12" font-family="Segoe UI, Arial">Tracing location</text>

  <rect x="470" y="108" width="780" height="580" rx="14" fill="#ffffff"/>
  <text x="494" y="146" fill="#0f172a" font-size="20" font-family="Segoe UI, Arial">Live Location Service</text>

  <rect x="860" y="120" width="160" height="30" rx="15" fill="#ecfdf5"/>
  <text x="886" y="140" fill="#047857" font-size="11" font-family="Segoe UI, Arial" font-weight="700">FOLIUM MAP ACTIVE</text>

  <rect x="1034" y="118" width="196" height="34" rx="17" fill="#ffffff" stroke="#cbd5e1"/>
  <text x="1066" y="140" fill="#334155" font-size="12" font-family="Segoe UI, Arial">Open interactive map</text>

  <rect x="494" y="166" width="732" height="386" rx="10" fill="#f8fafc" stroke="#cbd5e1"/>
  <rect x="494" y="166" width="732" height="42" rx="10" fill="#e2e8f0"/>
  <circle cx="520" cy="188" r="6" fill="#ef4444"/>
  <circle cx="542" cy="188" r="6" fill="#f59e0b"/>
  <circle cx="564" cy="188" r="6" fill="#22c55e"/>
  <text x="590" y="192" fill="#334155" font-size="13" font-family="Segoe UI, Arial">folium-route-map.html</text>

  <path d="M620 470 C 720 390, 840 360, 980 300" stroke="#0f766e" stroke-width="6" fill="none"/>
  <circle cx="620" cy="470" r="11" fill="#16a34a"/>
  <circle cx="780" cy="400" r="11" fill="#f59e0b"/>
  <circle cx="980" cy="300" r="11" fill="#dc2626"/>
  <text x="578" y="498" fill="#0f172a" font-size="12" font-family="Segoe UI, Arial">Origin: Pune</text>
  <text x="746" y="420" fill="#0f172a" font-size="12" font-family="Segoe UI, Arial">Current: Nagpur</text>
  <text x="952" y="286" fill="#0f172a" font-size="12" font-family="Segoe UI, Arial">Destination: Bengaluru</text>

  <rect x="494" y="572" width="232" height="52" rx="26" fill="#ffffff" stroke="#cbd5e1"/>
  <text x="556" y="604" fill="#334155" font-size="14" font-family="Segoe UI, Arial">Open directions</text>

  <rect x="744" y="564" width="482" height="102" rx="10" fill="#f8fafc"/>
  <text x="764" y="590" fill="#334155" font-size="13" font-family="Segoe UI, Arial">Current: Nagpur, Maharashtra, India</text>
  <text x="764" y="614" fill="#334155" font-size="13" font-family="Segoe UI, Arial">Origin: Pune, Maharashtra, India</text>
  <text x="764" y="638" fill="#334155" font-size="13" font-family="Segoe UI, Arial">Destination: Bengaluru, Karnataka, India</text>
</svg>
