<svg width="1280" height="720" viewBox="0 0 1280 720" xmlns="http://www.w3.org/2000/svg" role="img" aria-label="Shipment Location Trace">
  <rect width="1280" height="720" fill="#e2e8f0"/>
  <rect x="36" y="26" width="1208" height="60" rx="14" fill="#0f172a"/>
  <text x="62" y="64" fill="#a7f3d0" font-size="24" font-family="Segoe UI, Arial">Map Trace - Shipment SC-OPR-10001</text>
  <rect x="36" y="108" width="430" height="576" rx="14" fill="#ffffff"/>
  <text x="58" y="146" fill="#0f172a" font-size="20" font-family="Segoe UI, Arial">Shipment Inventory</text>
  <rect x="58" y="168" width="386" height="74" rx="10" fill="#f8fafc"/>
  <text x="74" y="198" fill="#0f172a" font-size="14" font-family="Segoe UI, Arial">SC-OPR-10001 | Mumbai, IN -> Dubai, UAE</text>
  <rect x="74" y="208" width="128" height="26" rx="13" fill="#e0f2fe" stroke="#0284c7"/>
  <text x="92" y="226" fill="#0c4a6e" font-size="12" font-family="Segoe UI, Arial">Trace location</text>
  <rect x="58" y="252" width="386" height="74" rx="10" fill="#f8fafc"/>
  <text x="74" y="282" fill="#0f172a" font-size="14" font-family="Segoe UI, Arial">SC-OPR-10002 | Delhi, IN -> Bengaluru, IN</text>
  <rect x="58" y="336" width="386" height="74" rx="10" fill="#f8fafc"/>
  <text x="74" y="366" fill="#0f172a" font-size="14" font-family="Segoe UI, Arial">SC-OPR-10003 | Chennai, IN -> Hyderabad, IN</text>
  <rect x="486" y="108" width="758" height="576" rx="14" fill="#ffffff"/>
  <text x="510" y="146" fill="#0f172a" font-size="20" font-family="Segoe UI, Arial">Location and Route Preview</text>
  <rect x="510" y="166" width="710" height="322" rx="10" fill="#bfdbfe"/>
  <path d="M595 403 C 700 320, 845 290, 970 252" stroke="#0f766e" stroke-width="6" fill="none" stroke-dasharray="12 10"/>
  <circle cx="595" cy="403" r="12" fill="#16a34a"/>
  <circle cx="760" cy="330" r="12" fill="#f59e0b"/>
  <circle cx="970" cy="252" r="12" fill="#dc2626"/>
  <text x="560" y="430" fill="#0f172a" font-size="13" font-family="Segoe UI, Arial">Origin: Mumbai, India</text>
  <text x="720" y="350" fill="#0f172a" font-size="13" font-family="Segoe UI, Arial">Current: Jebel Ali</text>
  <text x="930" y="236" fill="#0f172a" font-size="13" font-family="Segoe UI, Arial">Destination: Dubai</text>
  <rect x="510" y="504" width="220" height="52" rx="26" fill="#0f172a"/>
  <text x="566" y="536" fill="#ffffff" font-size="14" font-family="Segoe UI, Arial">Open directions</text>
  <rect x="744" y="504" width="476" height="156" rx="10" fill="#f8fafc"/>
  <text x="764" y="534" fill="#334155" font-size="13" font-family="Segoe UI, Arial">Current: Jebel Ali Port, Dubai</text>
  <text x="764" y="558" fill="#334155" font-size="13" font-family="Segoe UI, Arial">Origin: Mumbai, Maharashtra, India</text>
  <text x="764" y="582" fill="#334155" font-size="13" font-family="Segoe UI, Arial">Destination: Dubai, United Arab Emirates</text>
  <text x="764" y="606" fill="#0f766e" font-size="13" font-family="Segoe UI, Arial">Google Maps key configured, live geocode active.</text>
</svg>
